<mxfile host="Electron" modified="2024-08-03T21:02:43.755Z" agent="Mozilla/5.0 (X11; Linux x86_64) AppleWebKit/537.36 (KHTML, like Gecko) draw.io/24.6.4 Chrome/124.0.6367.207 Electron/30.0.6 Safari/537.36" etag="YbpJBoyZCsobzlGCJQr5" version="24.6.4" type="device">
  <diagram name="Page-1" id="MxZ0l3O3r8EjEsJYbbJX">
    <mxGraphModel dx="794" dy="782" grid="1" gridSize="10" guides="1" tooltips="1" connect="1" arrows="1" fold="1" page="1" pageScale="1" pageWidth="850" pageHeight="1100" math="0" shadow="0">
      <root>
        <mxCell id="0" />
        <mxCell id="1" parent="0" />
        <mxCell id="e3TEPgjFpsY1DIa8oNVu-1" value="Cliente" style="whiteSpace=wrap;html=1;align=center;" parent="1" vertex="1">
          <mxGeometry x="560" y="240" width="140" height="40" as="geometry" />
        </mxCell>
        <mxCell id="e3TEPgjFpsY1DIa8oNVu-4" value="Tarjeta" style="whiteSpace=wrap;html=1;align=center;" parent="1" vertex="1">
          <mxGeometry x="140" y="100" width="140" height="40" as="geometry" />
        </mxCell>
        <mxCell id="e3TEPgjFpsY1DIa8oNVu-5" value="Solicitud" style="whiteSpace=wrap;html=1;align=center;" parent="1" vertex="1">
          <mxGeometry x="530" y="430" width="140" height="40" as="geometry" />
        </mxCell>
        <mxCell id="e3TEPgjFpsY1DIa8oNVu-6" value="Movimientos" style="whiteSpace=wrap;html=1;align=center;" parent="1" vertex="1">
          <mxGeometry x="140" y="730" width="140" height="40" as="geometry" />
        </mxCell>
        <mxCell id="e3TEPgjFpsY1DIa8oNVu-8" value="Numero" style="ellipse;whiteSpace=wrap;html=1;align=center;fontStyle=4;" parent="1" vertex="1">
          <mxGeometry x="20" y="160" width="100" height="40" as="geometry" />
        </mxCell>
        <mxCell id="e3TEPgjFpsY1DIa8oNVu-9" value="Direccion" style="ellipse;whiteSpace=wrap;html=1;align=center;" parent="1" vertex="1">
          <mxGeometry x="670" y="170" width="100" height="40" as="geometry" />
        </mxCell>
        <mxCell id="e3TEPgjFpsY1DIa8oNVu-10" value="Nombre" style="ellipse;whiteSpace=wrap;html=1;align=center;" parent="1" vertex="1">
          <mxGeometry x="490" y="170" width="100" height="40" as="geometry" />
        </mxCell>
        <mxCell id="e3TEPgjFpsY1DIa8oNVu-11" value="Estado" style="ellipse;whiteSpace=wrap;html=1;align=center;" parent="1" vertex="1">
          <mxGeometry x="140" y="160" width="100" height="40" as="geometry" />
        </mxCell>
        <mxCell id="e3TEPgjFpsY1DIa8oNVu-13" value="Tipo" style="ellipse;whiteSpace=wrap;html=1;align=center;" parent="1" vertex="1">
          <mxGeometry x="10" y="10" width="100" height="40" as="geometry" />
        </mxCell>
        <mxCell id="e3TEPgjFpsY1DIa8oNVu-14" value="Saldo" style="ellipse;whiteSpace=wrap;html=1;align=center;" parent="1" vertex="1">
          <mxGeometry x="310" y="90" width="100" height="40" as="geometry" />
        </mxCell>
        <mxCell id="e3TEPgjFpsY1DIa8oNVu-15" value="Intereses" style="ellipse;whiteSpace=wrap;html=1;align=center;" parent="1" vertex="1">
          <mxGeometry x="130" y="10" width="100" height="40" as="geometry" />
        </mxCell>
        <mxCell id="e3TEPgjFpsY1DIa8oNVu-16" value="Monto" style="ellipse;whiteSpace=wrap;html=1;align=center;" parent="1" vertex="1">
          <mxGeometry x="270" y="20" width="100" height="40" as="geometry" />
        </mxCell>
        <mxCell id="e3TEPgjFpsY1DIa8oNVu-17" value="Fecha" style="ellipse;whiteSpace=wrap;html=1;align=center;" parent="1" vertex="1">
          <mxGeometry x="10" y="100" width="100" height="40" as="geometry" />
        </mxCell>
        <mxCell id="e3TEPgjFpsY1DIa8oNVu-21" value="Limite" style="ellipse;whiteSpace=wrap;html=1;align=center;" parent="1" vertex="1">
          <mxGeometry x="260" y="160" width="100" height="40" as="geometry" />
        </mxCell>
        <mxCell id="e3TEPgjFpsY1DIa8oNVu-23" value="Numero solicitud" style="ellipse;whiteSpace=wrap;html=1;align=center;" parent="1" vertex="1">
          <mxGeometry x="470" y="380" width="100" height="40" as="geometry" />
        </mxCell>
        <mxCell id="e3TEPgjFpsY1DIa8oNVu-24" value="Fecha" style="ellipse;whiteSpace=wrap;html=1;align=center;" parent="1" vertex="1">
          <mxGeometry x="660" y="380" width="100" height="40" as="geometry" />
        </mxCell>
      </root>
    </mxGraphModel>
  </diagram>
</mxfile>
